<?xml version="1.0" encoding="UTF-8" standalone="no"?>
<!-- Created with Inkscape (http://www.inkscape.org/) -->

<svg
   width="1536"
   height="1536"
   viewBox="0 0 406.39999 406.4"
   version="1.1"
   id="svg1"
   xml:space="preserve"
   xmlns:xlink="http://www.w3.org/1999/xlink"
   xmlns="http://www.w3.org/2000/svg"
   xmlns:svg="http://www.w3.org/2000/svg"><defs
     id="defs1" /><g
     id="layer1"
     style="display:inline"
     transform="translate(-498.01963)"><rect
       style="display:inline;fill:#c4abc1;fill-opacity:1;stroke-width:0.264583"
       id="rect1-6"
       width="406.39999"
       height="406.39999"
       x="498.01962"
       y="-4.2632564e-14" /></g><g
     id="layer4"
     transform="translate(-498.01963)"><path
       style="fill:#4f345a;fill-opacity:1;stroke-width:0.264583"
       d="m 633.49555,169.34259 -37.41984,37.4062 a 26.261755,26.261755 99.222699 0 0 -4.92275,30.31786 l 13.04021,26.08044 a 18.740184,18.740184 38.51893 0 0 12.3542,9.83364 l 15.68366,3.79511 a 7.5477277,7.5477277 66.626471 0 1 4.78429,11.06988 l -20.27775,35.62283 a 127.55062,127.55062 111.84314 0 0 -12.89272,32.16384 l -12.69189,50.76758 h 211.66666 l -12.51021,-75.06123 a 106.04152,106.04152 66.301011 0 0 -20.96358,-47.75866 l -35.76723,-45.8861 a 13.973717,13.973717 94.643494 0 1 1.53083,-18.84739 61.664856,61.664856 159.64251 0 1 42.16818,-15.6466 h 34.07 a 35.605573,35.605573 166.71747 0 0 15.9233,-3.75898 l 31.66051,-15.83026 a 21.023544,21.023544 121.71747 0 0 11.62153,-18.80403 l 0,-3.94006 a 13.699352,13.699352 58.282522 0 0 -7.57282,-12.25308 l -11.14822,-5.57411 a 71.73076,71.73076 13.282522 0 0 -32.07896,-7.57281 h -14.08721 a 47.921764,47.921764 166.71748 0 0 -21.43126,5.05923 l -0.71363,0.35682 a 2.5934853,2.5934853 42.618185 0 1 -3.56783,-3.28288 l 7.39303,-18.4826 A 28.621942,28.621942 78.409842 0 0 781.01647,88.255 l -3.59145,-3.593741 a 23.924441,23.924441 0.00913866 0 0 -33.83966,-0.0054 l -36.04268,36.042678 a 43.465184,43.465184 123.41331 0 0 -9.61478,14.57421 l -10.49591,26.20634 A 10.174949,10.174949 151.57108 0 1 675.99,167.67322 l -22.25952,-4.45418 a 22.40384,22.40384 163.163 0 0 -20.23493,6.12355 z"
       id="path6"
       transform="translate(-16.933338)" /><circle
       style="fill:#4f345a;fill-opacity:1;stroke-width:0.184847"
       id="path7"
       cx="802.81964"
       cy="287.86664"
       r="16.933346" /></g><g
     id="layer5"
     transform="translate(-498.01963)"><path
       id="path1-2"
       style="fill:none;fill-opacity:1;stroke:#4f345a;stroke-width:8.46667;stroke-dasharray:none;stroke-opacity:1"
       d="M 369.93087,756.4387 A 183.15638,183.15638 0 0 0 279.00943,513.89838 183.15638,183.15638 0 0 0 36.469114,604.81983 183.15638,183.15638 0 0 0 127.39055,847.36015 183.15638,183.15638 0 0 0 369.93087,756.4387 Z" /><text
       xml:space="preserve"
       style="font-weight:bold;font-size:38.8056px;line-height:1.05;font-family:'Atkinson Hyperlegible';-inkscape-font-specification:'Atkinson Hyperlegible, Bold';text-align:end;text-anchor:end;fill:#c4abc1;fill-opacity:1;stroke-width:8.46667"
       id="text1-1"
       transform="translate(-21.766895,146.87105)"><textPath
         xlink:href="#path1-2"
         startOffset="100%"
         id="textPath1-8"
         style="font-size:38.8056px;line-height:1.05"><tspan
           id="tspan1-7"
           style="font-style:normal;font-variant:normal;font-weight:normal;font-stretch:normal;font-size:38.8056px;line-height:1.05;font-family:'Young Serif';-inkscape-font-specification:'Young Serif';fill:#c4abc1;fill-opacity:1;stroke-width:8.46667"
           dx="0 -2.6600001 0.75999999 0 0 -0.69999999 0.80000001 -0.30000001 0 0 0 0 0 0 0 0 0 0.44999999"
           rotate="0 0"
           dy="0 0">The Justice Lit Mag </tspan></textPath></text></g></svg>
